<?xml version="1.0" encoding="UTF-8"?>
<svg width="26px" height="26px" viewBox="0 0 26 26" version="1.1" xmlns="http://www.w3.org/2000/svg" xmlns:xlink="http://www.w3.org/1999/xlink">
    <!-- Generator: Sketch Beta 47 (45359) - http://www.bohemiancoding.com/sketch -->
    <title>icon-close</title>
    <desc>Created with Sketch Beta.</desc>
    <defs></defs>
    <g id="Glyphs" stroke="none" stroke-width="1" fill="none" fill-rule="evenodd">
        <g id="close" fill="#000">
            <path d="M12.5836309,11.5229708 L7.28033009,6.21966991 C6.98743687,5.9267767 6.51256313,5.9267767 6.21966991,6.21966991 C5.9267767,6.51256313 5.9267767,6.98743687 6.21966991,7.28033009 L11.5229708,12.5836309 L6.21966991,17.8869318 C5.9267767,18.179825 5.9267767,18.6546988 6.21966991,18.947592 C6.51256313,19.2404852 6.98743687,19.2404852 7.28033009,18.947592 L12.5836309,13.6442911 L17.8869318,18.947592 C18.179825,19.2404852 18.6546988,19.2404852 18.947592,18.947592 C19.2404852,18.6546988 19.2404852,18.179825 18.947592,17.8869318 L13.6442911,12.5836309 L18.947592,7.28033009 C19.2404852,6.98743687 19.2404852,6.51256313 18.947592,6.21966991 C18.6546988,5.9267767 18.179825,5.9267767 17.8869318,6.21966991 L12.5836309,11.5229708 Z" id="Combined-Shape"></path>
        </g>
    </g>
</svg>
