<?xml version="1.0" encoding="UTF-8"?>
<svg width="26px" height="26px" viewBox="0 0 26 26" version="1.1" xmlns="http://www.w3.org/2000/svg" xmlns:xlink="http://www.w3.org/1999/xlink">
    <!-- Generator: Sketch Beta 47 (45359) - http://www.bohemiancoding.com/sketch -->
    <title>icon-cog</title>
    <desc>Created with Sketch Beta.</desc>
    <defs></defs>
    <g id="Glyphs" stroke="none" stroke-width="1" fill="none" fill-rule="evenodd">
        <g id="cog" fill-rule="nonzero" fill="#000">
            <path d="M20,13.77 L20,12.17 L18.06,11.53 L17.61,10.44 L18.49,8.6 L17.36,7.47 L15.55,8.38 L14.46,7.93 L13.77,6.01 L12.17,6.01 L11.54,7.95 L10.43,8.4 L8.59,7.52 L7.46,8.65 L8.37,10.46 L7.92,11.55 L6,12.23 L6,13.82 L7.94,14.46 L8.39,15.55 L7.51,17.39 L8.64,18.52 L10.45,17.61 L11.54,18.06 L12.23,19.98 L13.82,19.98 L14.45,18.04 L15.56,17.59 L17.4,18.47 L18.53,17.34 L17.61,15.53 L18.08,14.44 L20,13.75 L20,13.77 Z M13,16 C11.34,16 10,14.66 10,13 C10,11.34 11.34,10 13,10 C14.66,10 16,11.34 16,13 C16,14.66 14.66,16 13,16 Z" id="Shape"></path>
        </g>
    </g>
</svg>
