<?xml version="1.0" encoding="UTF-8"?>
<svg width="26px" height="26px" viewBox="0 0 26 26" version="1.1" xmlns="http://www.w3.org/2000/svg" xmlns:xlink="http://www.w3.org/1999/xlink">
    <!-- Generator: Sketch 46.2 (44496) - http://www.bohemiancoding.com/sketch -->
    <title>icon-configuration</title>
    <desc>Created with Sketch.</desc>
    <defs></defs>
    <g id="Elements-/-Glyphs" stroke="none" stroke-width="1" fill="none" fill-rule="evenodd">
        <g id="configuration" fill-rule="nonzero" fill="#FFFFFF">
            <path d="M13.5,17 L7,17 L7,18 L13.5,18 L13.5,17 Z M17.5,17 L19,17 L19,18 L17.5,18 L17.5,17 Z M16.4142136,8.58578644 C16.0522847,8.22385763 15.5522847,8 15,8 L11,8 C9.8954305,8 9,8.8954305 9,10 C9,11.1045695 9.8954305,12 11,12 L15,12 C16.1045695,12 17,11.1045695 17,10 C17,9.44771525 16.7761424,8.94771525 16.4142136,8.58578644 C16.0522847,8.22385763 15.5522847,8 15,8 C13.8954305,8 13,8.8954305 13,10 L13,10 L13,10 C13,11.1045695 13.8954305,12 15,12 C16.1045695,12 17,11.1045695 17,10 L17,10 C17,9.44771525 16.7761424,8.94771525 16.4142136,8.58578644 Z M11,7 L15,7 C16.6568542,7 18,8.34314575 18,10 C18,11.6568542 16.6568542,13 15,13 L11,13 C9.34314575,13 8,11.6568542 8,10 C8,8.34314575 9.34314575,7 11,7 Z M14,16 L17,16 L17,19 L15.5,20 L14,19 L14,16 Z" id="Combined-Shape"></path>
        </g>
    </g>
</svg>