<?xml version="1.0" encoding="UTF-8"?>
<svg width="26px" height="26px" viewBox="0 0 26 26" version="1.1" xmlns="http://www.w3.org/2000/svg" xmlns:xlink="http://www.w3.org/1999/xlink">
    <!-- Generator: Sketch 46.2 (44496) - http://www.bohemiancoding.com/sketch -->
    <title>icon-dashboards</title>
    <desc>Created with Sketch.</desc>
    <defs>
        <linearGradient x1="50%" y1="0%" x2="50%" y2="100%" id="linearGradient-1">
            <stop stop-color="#FFFFFF" offset="0%"></stop>
            <stop stop-color="#FFFFFF" stop-opacity="0" offset="100%"></stop>
        </linearGradient>
        <path d="M18.3586769,9.03676714 L16.8961447,8.9057971 L15.8359022,9.1522567 L14.6210661,11.0907974 L14.2863387,11.7839075 L13.9629257,12.3327728 L13.369686,13.394987 L12.9821856,13.7947719 L12.1708317,14.1802196 L11.6035351,14.677661 L10.5274896,15.8204404 L8.99096734,14.783922 L8.25039528,15.0831308 L7.33109328,15.5768971 L6.71464937,15.6233867 L6,15.1826593 L6,17.9272916 L7.0625,17.6014493 L8.07119123,17.6014493 L8.89527247,16.9900611 L9.48678529,17.4743112 L10.7957808,18.07166 L11.8067831,17.6901865 L12.5799385,16.9796252 L13.2143839,15.869626 L14.1241345,15.4958058 L15.3723755,14.0245358 L15.7870743,13.1528226 L16.6914339,11.4687948 L17.073751,10.9588707 L17.9955467,11.1074944 C18.0228751,10.9341899 17.9649123,11.3902558 17.9649123,11.5 C17.9649123,12.8807119 19.0842004,14 20.4649123,14 C21.8456242,14 22.9649123,12.8807119 22.9649123,11.5 C22.9649123,10.1192881 21.8456242,9 20.4649123,9 C19.9543678,9 19.4795675,9.1530393 19.0838836,9.41574582 L18.3586769,9.03676714 Z" id="path-2"></path>
    </defs>
    <g id="Elements-/-Glyphs" stroke="none" stroke-width="1" fill="none" fill-rule="evenodd">
        <g id="dashboards" fill-rule="nonzero">
            <path d="M6,16 L6,20 L20,20 L20,6 L6,6 L6,15 L14.9649123,15 L14.9649123,6 L15.9649123,6 L15.9649123,15 L19.9649123,15 L19.9649123,16 L15.9649123,16 L15.9649123,20 L14.9649123,20 L14.9649123,16 L6,16 Z M6,4 L20,4 C21.1045695,4 22,4.8954305 22,6 L22,20 C22,21.1045695 21.1045695,22 20,22 L6,22 C4.8954305,22 4,21.1045695 4,20 L4,6 C4,4.8954305 4.8954305,4 6,4 Z" id="background" fill-opacity="0.282184103" fill="#FFFFFF"></path>
            <g id="foreground">
                <use fill="#FFFFFF" fill-rule="evenodd" xlink:href="#path-2"></use>
                <use fill-opacity="0.5" fill="url(#linearGradient-1)" fill-rule="evenodd" xlink:href="#path-2"></use>
            </g>
        </g>
    </g>
</svg>