<?xml version="1.0" encoding="UTF-8"?>
<svg width="26px" height="26px" viewBox="0 0 26 26" version="1.1" xmlns="http://www.w3.org/2000/svg" xmlns:xlink="http://www.w3.org/1999/xlink">
    <!-- Generator: Sketch 46.2 (44496) - http://www.bohemiancoding.com/sketch -->
    <title>icon-ekg</title>
    <desc>Created with Sketch.</desc>
    <defs></defs>
    <g id="Elements-/-Glyphs" stroke="none" stroke-width="1" fill="none" fill-rule="evenodd">
        <g id="ekg" fill-rule="nonzero" fill="#FFFFFF">
            <path d="M8.65962195,14.0109475 L10.5364821,20.767644 C10.814668,21.7691132 12.2465044,21.7341229 12.475441,20.720261 L14.9921935,9.57464291 L16.0238129,14.2169305 C16.125488,14.6744681 16.5313014,15.0000001 17,15.0000001 C20.6666667,14.6666668 22.5,14.5000001 22.5,14.5000001 C22.5,14.5000001 22.8333333,14.3333334 23.5,14.0000001 L22.5,13.5000001 L17.8021716,13.0000001 L15.9761871,4.78306963 C15.7445718,3.74080085 14.2597301,3.73826699 14.024559,4.77973922 L11.3998872,16.4032857 L9.96351791,11.2323562 C9.72840935,10.3859654 8.59445974,10.2322499 8.14250707,10.9855043 L6.93380962,13.0000001 C4.97793654,13.3333334 4,13.5000001 4,13.5000001 C4,13.5000001 3.66666667,13.6666668 3,14.0000001 L4,14.5000001 L7.5,15.0000001 C7.85126285,15.0000001 8.17676968,14.8157013 8.35749293,14.5144958 L8.65962195,14.0109475 Z" id="Path-7"></path>
        </g>
    </g>
</svg>