<?xml version="1.0" encoding="UTF-8"?>
<svg width="26px" height="26px" viewBox="0 0 26 26" version="1.1" xmlns="http://www.w3.org/2000/svg" xmlns:xlink="http://www.w3.org/1999/xlink">
    <!-- Generator: Sketch Beta 47 (45359) - http://www.bohemiancoding.com/sketch -->
    <title>icon-fabric</title>
    <desc>Created with Sketch Beta.</desc>
    <defs></defs>
    <g id="Glyphs" stroke="none" stroke-width="1" fill="none" fill-rule="evenodd">
        <g id="fabric" fill="#000">
            <path d="M22,16.4648712 L22,20 C22,21.1045695 21.1045695,22 20,22 L6,22 C4.8954305,22 4,21.1045695 4,20 L4,16.4648712 C4.58834673,16.8052114 5.27142571,17 6,17 L6,20 L20,20 L20,17 C20.7285743,17 21.4116533,16.8052114 22,16.4648712 Z M22,9.53512878 L22,6 C22,4.8954305 21.1045695,4 20,4 L6,4 C4.8954305,4 4,4.8954305 4,6 L4,9.53512878 C4.58834673,9.19478857 5.27142571,9 6,9 L6,6 L20,6 L20,9 C20.7285743,9 21.4116533,9.19478857 22,9.53512878 Z" id="background" fill-opacity="0.282184103" fill-rule="nonzero"></path>
            <path d="M12.4719384,12.4545455 C10.9657073,12.4545455 9.74466567,11.2335039 9.74466567,9.72727273 C9.74466567,8.22104159 10.9657073,7 12.4719384,7 C13.9781695,7 15.1992111,8.22104159 15.1992111,9.72727273 C15.1992111,11.2335039 13.9781695,12.4545455 12.4719384,12.4545455 Z M5.92648385,15.7272727 C4.42025272,15.7272727 3.19921112,14.5062311 3.19921112,13 C3.19921112,11.4937689 4.42025272,10.2727273 5.92648385,10.2727273 C7.43271499,10.2727273 8.65375658,11.4937689 8.65375658,13 C8.65375658,14.5062311 7.43271499,15.7272727 5.92648385,15.7272727 Z M13.5628475,19 C12.0566164,19 10.8355748,17.7789584 10.8355748,16.2727273 C10.8355748,14.7664961 12.0566164,13.5454545 13.5628475,13.5454545 C15.0690786,13.5454545 16.2901202,14.7664961 16.2901202,16.2727273 C16.2901202,17.7789584 15.0690786,19 13.5628475,19 Z M20.108302,15.7272727 C18.6020709,15.7272727 17.3810293,14.5062311 17.3810293,13 C17.3810293,11.4937689 18.6020709,10.2727273 20.108302,10.2727273 C21.6145332,10.2727273 22.8355748,11.4937689 22.8355748,13 C22.8355748,14.5062311 21.6145332,15.7272727 20.108302,15.7272727 Z" id="foreground"></path>
        </g>
    </g>
</svg>
