<?xml version="1.0" encoding="UTF-8"?>
<svg width="26px" height="26px" viewBox="0 0 26 26" version="1.1" xmlns="http://www.w3.org/2000/svg" xmlns:xlink="http://www.w3.org/1999/xlink">
    <!-- Generator: Sketch Beta 47 (45359) - http://www.bohemiancoding.com/sketch -->
    <title>icon-graph-magnifier</title>
    <desc>Created with Sketch Beta.</desc>
    <defs></defs>
    <g id="Glyphs" stroke="none" stroke-width="1" fill="none" fill-rule="evenodd">
        <g id="graph-magnifier" fill-rule="nonzero" fill="#000">
            <path d="M9.46465018,17.59601 L6.5,20.5606602 L5.43933983,19.5 L8.40399001,16.5353498 C7.52495872,15.426768 7,14.0246893 7,12.5 C7,8.91014913 9.91014913,6 13.5,6 C17.0898509,6 20,8.91014913 20,12.5 C20,16.0898509 17.0898509,19 13.5,19 C11.9753107,19 10.573232,18.4750413 9.46465018,17.59601 Z M10.5345636,16.5260966 C11.3642238,17.1382069 12.3898612,17.5 13.5,17.5 C16.2614237,17.5 18.5,15.2614237 18.5,12.5 C18.5,9.73857625 16.2614237,7.5 13.5,7.5 C10.7385763,7.5 8.5,9.73857625 8.5,12.5 C8.5,13.6101388 8.86179313,14.6357762 9.47390343,15.4654364 L9.5,15.4393398 L10.5606602,16.5 L10.5345636,16.5260966 Z" id="magnifier"></path>
            <path d="M6.44821001,15.0598605 L6.30211479,15.3004879 L4.41706635,12.9718987 L5.58293365,12.0281013 L6.00012323,12.5434532 C6.00513455,13.4267812 6.16284994,14.2739368 6.44821001,15.0598605 Z M20.9796379,13.0568881 L21.0157752,13.1759286 L21.3589094,12.6107664 L22.6410906,13.3892336 L20.5556534,16.8240714 L20.2417472,15.7900275 C20.6503254,14.9543591 20.9081038,14.0314977 20.9796379,13.0568881 Z M10.4923213,14.9118853 L10.026641,14.0850721 L9.94751634,12.5423736 L11.3862368,9.47727349 L13.1240377,12.0839749 L11.8036425,12.221457 L13.6184341,7.68447803 L14.9320356,12.2820834 L16.0714446,11.4844971 L17.0550281,12.6995121 L16.8896003,14.8791465 L15.7856983,13.5155029 L14.0679644,14.7179166 L13.3815659,12.315522 L12.6668388,14.1023399 L10.8759623,11.4160251 L12.1789277,11.3186804 L10.4923213,14.9118853 Z" id="graph"></path>
        </g>
    </g>
</svg>
