<?xml version="1.0" encoding="UTF-8"?>
<svg width="26px" height="26px" viewBox="0 0 26 26" version="1.1" xmlns="http://www.w3.org/2000/svg" xmlns:xlink="http://www.w3.org/1999/xlink">
    <!-- Generator: Sketch 46.2 (44496) - http://www.bohemiancoding.com/sketch -->
    <title>icon-grpc</title>
    <desc>Created with Sketch.</desc>
    <defs></defs>
    <g id="Elements-/-Glyphs" stroke="none" stroke-width="1" fill="none" fill-rule="evenodd">
        <g id="grpc" fill-rule="nonzero" fill="#FFFFFF">
            <path d="M9.94681958,12.8472727 L10.6247123,12.8472727 C10.8350938,12.8472727 11.0026173,12.8255936 11.1272879,12.7822348 C11.2519584,12.7388759 11.3474079,12.6767292 11.4136391,12.5957927 C11.4798703,12.5148562 11.5246731,12.4151323 11.5480489,12.2966182 C11.5714246,12.178104 11.5831123,12.040803 11.5831123,11.8847112 C11.5831123,11.7286194 11.5714246,11.5913184 11.5480489,11.4728042 C11.5246731,11.3542901 11.4759744,11.253121 11.4019513,11.1692939 C11.3279282,11.0854668 11.2246869,11.02332 11.0922245,10.9828518 C10.959762,10.9423835 10.7844467,10.9221497 10.5662732,10.9221497 L9.94681958,10.9221497 L9.94681958,12.8472727 L9.94681958,12.8472727 Z M8.75466345,10.0542441 L10.6714635,10.0542441 C12.0740071,10.0542441 12.7752684,10.6840721 12.7752684,11.9437469 C12.7752684,12.3174303 12.6992984,12.6383713 12.5473562,12.9065796 C12.395414,13.1747879 12.1285451,13.3902553 11.7467416,13.5529884 L13.0324001,16.4912104 L11.7701172,16.4912104 L10.6409275,13.695135 L9.94681958,13.695135 L9.94681958,16.4912104 L8.75466345,16.4912104 L8.75466345,10.0542441 L8.75466345,10.0542441 Z M13.7336685,10.0542441 L15.5219026,10.0542441 C15.8491628,10.0542441 16.137459,10.0873929 16.3868002,10.1536916 C16.6361412,10.2199903 16.8621033,10.337518 17.0646929,10.5062783 C17.2672826,10.6750385 17.4075347,10.8724248 17.4854538,11.098443 C17.563373,11.3244612 17.6023319,11.6303346 17.6023319,12.0160723 C17.6023319,12.2993485 17.5729073,12.5021252 17.5300518,12.7040348 C17.4871964,12.9059444 17.3488827,13.2571932 16.8054518,13.4955219 C16.4655639,13.6445841 15.9777292,13.6982134 15.5335904,13.6982134 L14.9258246,13.6982134 L14.9258246,16.4912104 L13.7336685,16.4912104 L13.7336685,10.0542441 L13.7336685,10.0542441 Z M14.9258246,12.8472727 L15.498527,12.8472727 C15.7400762,12.8472727 15.9270792,12.8234078 16.0595416,12.7756772 C16.1920041,12.7279467 16.2894015,12.6629811 16.3517368,12.5807784 C16.414072,12.4985758 16.451083,12.3991386 16.4627709,12.2824639 C16.4744588,12.1657892 16.4803026,12.0358579 16.4803026,11.8926663 C16.4803026,11.7600814 16.4744588,11.6341276 16.4627709,11.5148012 C16.451083,11.3954748 16.41602,11.2920601 16.3575807,11.2045541 C16.2991414,11.1170481 16.2075878,11.0481049 16.0829172,10.9977227 C15.9582467,10.9473404 15.7790355,10.9221497 15.5452782,10.9221497 L14.9258246,10.9221497 L14.9258246,12.8472727 L14.9258246,12.8472727 Z M22.2774539,15.0537418 C22.2774539,15.2526379 22.2287553,15.4424903 22.1313564,15.6233049 C22.0339575,15.8041194 21.8995491,15.9623298 21.7281272,16.0979407 C21.5567051,16.2335517 21.3560664,16.3420388 21.1262051,16.4234053 C20.8963438,16.5047719 20.6489544,16.5454545 20.3840295,16.5454545 C20.1580642,16.5454545 19.9282062,16.5213463 19.694449,16.4731291 C19.4606918,16.4249119 19.2503134,16.3420398 19.0633076,16.2245103 C18.8763017,16.1069808 18.7224138,15.951784 18.6016392,15.7589151 C18.4808646,15.5660463 18.4204782,15.3219502 18.4204782,15.0266198 L18.4204782,11.482672 C18.4204782,11.2717217 18.467229,11.0758422 18.560732,10.8950276 C18.6542349,10.7142131 18.7866953,10.5575095 18.9581174,10.4249121 C19.1295393,10.2923148 19.3340739,10.1883479 19.571727,10.1130085 C19.8093803,10.0376691 20.0723532,10 20.360654,10 C20.6333708,10 20.886604,10.0376691 21.1203612,10.1130085 C21.3541185,10.1883479 21.5567051,10.2938215 21.7281272,10.4294324 C21.8995491,10.5650434 22.0339575,10.727774 22.1313564,10.9176293 C22.2287553,11.1074846 22.2774539,11.3139115 22.2774539,11.5369161 L22.2774539,11.8985434 L21.0852978,11.8985434 L21.0852978,11.5911602 C21.0852978,11.4103457 21.0190676,11.253642 20.8866052,11.1210447 C20.7541427,10.9884474 20.5749315,10.9221497 20.3489661,10.9221497 C20.0528735,10.9221497 19.8561308,10.9929676 19.7587319,11.1346057 C19.6613331,11.2762438 19.6126344,11.4555489 19.6126344,11.6725264 L19.6126344,14.963335 C19.6126344,15.1501767 19.665229,15.3068803 19.7704198,15.4334505 C19.8756105,15.5600207 20.0645615,15.6233049 20.3372783,15.6233049 C20.4151974,15.6233049 20.4989591,15.6127575 20.5885661,15.5916625 C20.6781731,15.5705674 20.7599868,15.5359118 20.83401,15.4876946 C20.9080331,15.4394774 20.9684195,15.3731797 21.015171,15.2887996 C21.0619224,15.2044195 21.0852978,15.0989459 21.0852978,14.9723757 L21.0852978,14.6559518 L22.2774539,14.6559518 L22.2774539,15.0537418 L22.2774539,15.0537418 Z M24.6132146,13.2645443 C24.6132146,13.0295723 24.3671676,12.8390898 24.0636534,12.8390898 L21.0863756,12.8390897 L21.0863756,13.6899988 L23.5140923,13.6899989 L23.5140923,14.6390898 L23.139947,14.6390898 L24.0699735,15.6536352 L25,14.6390898 L24.6132146,14.6390898 L24.6132146,13.2645443 L24.6132146,13.2645443 Z M3.70553165,13.6981818 L3.70553165,14.9723757 C3.70553165,15.2375704 3.76397009,15.4681055 3.88084872,15.6639879 C3.99772736,15.8598704 4.15161526,16.0226011 4.34251703,16.1521848 C4.5334188,16.2817686 4.74769308,16.3797084 4.9853463,16.446007 C5.22299954,16.5123057 5.46259714,16.5454545 5.70414632,16.5454545 C5.9456955,16.5454545 6.18529311,16.5123057 6.42294634,16.446007 C6.66059956,16.3797084 6.87487384,16.2817686 7.06577561,16.1521848 C7.25667738,16.0226011 7.41056528,15.8598704 7.52744392,15.6639879 C7.64432255,15.4681055 7.70276099,15.2375704 7.70276099,14.9723757 L7.70276099,12.8490809 L5.56659868,12.8465656 L5.56389269,13.6979618 L6.51060491,13.6979618 L6.51060488,14.9723757 C6.51060488,15.1953803 6.43073901,15.3596178 6.27100487,15.4650929 C6.11127074,15.5705681 5.92231978,15.6233049 5.70414632,15.6233049 C5.48597286,15.6233049 5.29702191,15.5705681 5.13728777,15.4650929 C4.97755364,15.3596178 4.89768777,15.1953803 4.89768777,14.9723757 L4.89768777,11.5730789 C4.89768777,11.3500742 4.97755364,11.1858368 5.13728777,11.0803616 C5.29702191,10.9748865 5.48597286,10.9221497 5.70414632,10.9221497 C5.92231978,10.9221497 6.11127074,10.9748865 6.27100487,11.0803616 C6.43073901,11.1858368 6.51060488,11.3500742 6.51060488,11.5730789 L6.51060488,11.8985434 L7.70276099,11.8985434 L7.70276099,11.5730789 C7.70276099,11.3139113 7.64432255,11.084883 7.52744392,10.8859869 C7.41056528,10.6870909 7.25667738,10.5228535 7.06577561,10.3932697 C6.87487384,10.2636859 6.66059956,10.1657462 6.42294634,10.0994475 C6.18529311,10.0331488 5.9456955,10 5.70414632,10 C5.46259714,10 5.22299954,10.0331488 4.9853463,10.0994475 C4.74769308,10.1657462 4.5334188,10.2636859 4.34251703,10.3932697 C4.15161526,10.5228535 3.99772736,10.6870909 3.88084872,10.8859869 C3.76397009,11.084883 3.70553165,11.3139113 3.70553165,11.5730789 L3.70553165,12.8472727 L2.48590769,12.8472727 L2.48590769,11.8981818 L2.860053,11.8981818 L1.9300265,10.8836364 L1,11.8981818 L1.38678547,11.8981818 L1.38678547,13.2727273 C1.38678547,13.5076993 1.63283236,13.6981818 1.93634658,13.6981818 L3.70553165,13.6981818 L3.70553165,13.6981818 L3.70553165,13.6981818 Z" id="grpc_white"></path>
        </g>
    </g>
</svg>