<?xml version="1.0" encoding="UTF-8"?>
<svg width="26px" height="26px" viewBox="0 0 26 26" version="1.1" xmlns="http://www.w3.org/2000/svg" xmlns:xlink="http://www.w3.org/1999/xlink">
    <!-- Generator: Sketch Beta 47 (45359) - http://www.bohemiancoding.com/sketch -->
    <title>icon-http</title>
    <desc>Created with Sketch Beta.</desc>
    <defs></defs>
    <g id="Glyphs" stroke="none" stroke-width="1" fill="none" fill-rule="evenodd">
        <g id="http" fill="#000">
            <path d="M7.92646403,11.0114456 C7.92646403,11.2105258 7.88664859,11.3971606 7.80701652,11.5713558 C7.72738444,11.745551 7.62286892,11.8973473 7.4934668,12.0267494 C7.36406468,12.1561516 7.20977986,12.2581786 7.03060769,12.3328337 C6.85143553,12.4074888 6.66728912,12.4448157 6.47816295,12.4448157 C6.27908277,12.4448157 6.08995944,12.4099772 5.91078727,12.3402992 C5.73161511,12.2706211 5.57484182,12.1710825 5.4404627,12.0416804 C5.30608358,11.9122783 5.19907958,11.7629704 5.11944751,11.5937522 C5.03981544,11.4245341 5,11.2403876 5,11.0413075 C5,10.8422273 5.03981544,10.6555924 5.11944751,10.4813973 C5.19907958,10.3072021 5.30608358,10.1554057 5.4404627,10.0260036 C5.57484182,9.8966015 5.73161511,9.79457444 5.91078727,9.71991937 C6.08995944,9.6452643 6.27908277,9.60793733 6.47816295,9.60793733 C6.66728912,9.60793733 6.85143553,9.6452643 7.03060769,9.71991937 C7.20977986,9.79457444 7.36406468,9.89411304 7.4934668,10.0185382 C7.62286892,10.1429633 7.72738444,10.2922712 7.80701652,10.4664663 C7.88664859,10.6406615 7.92646403,10.8223194 7.92646403,11.0114456 Z M7.92646403,15.804277 C7.92646403,16.0033572 7.88664859,16.189992 7.80701652,16.3641872 C7.72738444,16.5383823 7.62286892,16.6876902 7.4934668,16.8121154 C7.36406468,16.9365405 7.20977986,17.0360791 7.03060769,17.1107341 C6.85143553,17.1853892 6.66728912,17.2227162 6.47816295,17.2227162 C6.27908277,17.2227162 6.08995944,17.1878777 5.91078727,17.1181996 C5.73161511,17.0485215 5.57484182,16.9489829 5.4404627,16.8195808 C5.30608358,16.6901787 5.19907958,16.5408708 5.11944751,16.3716527 C5.03981544,16.2024345 5,16.0182881 5,15.8192079 C5,15.6201277 5.03981544,15.4334929 5.11944751,15.2592977 C5.19907958,15.0851026 5.30608358,14.9333062 5.4404627,14.8039041 C5.57484182,14.674502 5.73161511,14.5724749 5.91078727,14.4978198 C6.08995944,14.4231648 6.27908277,14.3858378 6.47816295,14.3858378 C6.66728912,14.3858378 6.85143553,14.4231648 7.03060769,14.4978198 C7.20977986,14.5724749 7.36406468,14.6720135 7.4934668,14.7964386 C7.62286892,14.9208637 7.72738444,15.0701716 7.80701652,15.2443668 C7.88664859,15.4185619 7.92646403,15.6051968 7.92646403,15.804277 Z M10.5244474,19.1537843 L8.8372513,18.6013395 L13.4509114,7 L15.1381075,7.58230662 L10.5244474,19.1537843 Z M15.720787,19.1537843 L14.033591,18.6013395 L18.6472511,7 L20.3344472,7.58230662 L15.720787,19.1537843 Z" id="://"></path>
        </g>
    </g>
</svg>
