<?xml version="1.0" encoding="UTF-8"?>
<svg width="26px" height="26px" viewBox="0 0 26 26" version="1.1" xmlns="http://www.w3.org/2000/svg" xmlns:xlink="http://www.w3.org/1999/xlink">
    <!-- Generator: Sketch 46.2 (44496) - http://www.bohemiancoding.com/sketch -->
    <title>icon-list</title>
    <desc>Created with Sketch.</desc>
    <defs></defs>
    <g id="Elements-/-Glyphs" stroke="none" stroke-width="1" fill="none" fill-rule="evenodd">
        <g id="list" fill="#FFFFFF">
            <path d="M6.5,9 C5.67157288,9 5,8.32842712 5,7.5 C5,6.67157288 5.67157288,6 6.5,6 C7.32842712,6 8,6.67157288 8,7.5 C8,8.32842712 7.32842712,9 6.5,9 Z M6.5,14 C5.67157288,14 5,13.3284271 5,12.5 C5,11.6715729 5.67157288,11 6.5,11 C7.32842712,11 8,11.6715729 8,12.5 C8,13.3284271 7.32842712,14 6.5,14 Z M6.5,19 C5.67157288,19 5,18.3284271 5,17.5 C5,16.6715729 5.67157288,16 6.5,16 C7.32842712,16 8,16.6715729 8,17.5 C8,18.3284271 7.32842712,19 6.5,19 Z M10,6.5 L20,6.5 C20.5522847,6.5 21,6.94771525 21,7.5 L21,7.5 C21,8.05228475 20.5522847,8.5 20,8.5 L10,8.5 C9.44771525,8.5 9,8.05228475 9,7.5 L9,7.5 L9,7.5 C9,6.94771525 9.44771525,6.5 10,6.5 Z M10,11.5 L20,11.5 C20.5522847,11.5 21,11.9477153 21,12.5 C21,13.0522847 20.5522847,13.5 20,13.5 L10,13.5 C9.44771525,13.5 9,13.0522847 9,12.5 C9,11.9477153 9.44771525,11.5 10,11.5 Z M10,16.5 L20,16.5 C20.5522847,16.5 21,16.9477153 21,17.5 C21,18.0522847 20.5522847,18.5 20,18.5 L10,18.5 C9.44771525,18.5 9,18.0522847 9,17.5 C9,16.9477153 9.44771525,16.5 10,16.5 Z" id="Combined-Shape"></path>
        </g>
    </g>
</svg>