<?xml version="1.0" encoding="UTF-8"?>
<svg width="26px" height="26px" viewBox="0 0 26 26" version="1.1" xmlns="http://www.w3.org/2000/svg" xmlns:xlink="http://www.w3.org/1999/xlink">
    <!-- Generator: Sketch 46.2 (44496) - http://www.bohemiancoding.com/sketch -->
    <title>icon-logo-finagle</title>
    <desc>Created with Sketch.</desc>
    <defs></defs>
    <g id="Elements-/-Glyphs" stroke="none" stroke-width="1" fill="none" fill-rule="evenodd">
        <g id="logo-finagle" fill="#FFFFFF">
            <path d="M14.4289302,10.0791764 C13.998656,10.3154053 13.7285612,10.6603614 13.6102091,11.1310369 C13.5275052,11.0805352 13.4579911,11.0404904 13.3908536,10.9966431 C12.3799885,10.3365566 11.3341882,9.73445793 10.2925468,9.12522962 C9.78408415,8.82780452 9.28168171,8.52087323 8.81896764,8.15286463 C8.30087998,7.74065222 7.90066914,7.23611089 7.59492612,6.65112338 C7.2852618,6.05876856 7.06150972,5.43278558 6.87685187,4.79361275 C6.69516471,4.16442143 6.53736186,3.52845694 6.3691022,2.89534431 C6.36339848,2.87348006 6.35852655,2.85149698 6.34676264,2.80218359 C6.42827826,2.87015289 6.49042502,2.91863449 6.54888812,2.97139388 C7.07790791,3.4486049 7.60573942,3.92712302 8.13475921,4.40433404 C8.80126235,5.00548209 9.46871611,5.60567951 10.1355757,6.20635225 C10.7143842,6.72764825 11.2928362,7.24930074 11.8716447,7.77059674 C12.5385043,8.37126948 13.2054828,8.97194221 13.8726989,9.57225847 C14.0138659,9.69940383 14.1568153,9.82452913 14.2981011,9.95155567 C14.3393343,9.98851101 14.3774779,10.0287935 14.4289302,10.0791764 Z M14.6343353,19.1061409 C14.6251856,19.20251 14.6181748,19.2766583 14.6105698,19.3568668 C14.4963766,19.4284009 14.3861048,19.3988129 14.2632372,19.3521137 C14.3017373,19.0308043 14.2271136,18.7439548 13.9956378,18.5156873 C13.8315371,18.3537255 13.6302434,18.2653179 13.3950839,18.2573565 C13.0946881,18.2471373 12.8478835,18.3545573 12.6524123,18.5812801 C12.4609813,18.8033686 12.4101232,19.0662149 12.443276,19.3459347 C12.3379949,19.415924 12.1989668,19.2671521 12.1280268,19.4267373 C12.0427087,19.2532493 12.0577998,19.1073292 12.2152462,18.5451565 C11.9819879,18.5943511 11.7622759,18.5848449 11.5574174,18.442252 C11.579757,18.3979293 11.5949669,18.3643012 11.6131475,18.3320989 C11.6487957,18.2692392 11.6964455,18.2502268 11.7683361,18.2785077 C11.8246603,18.3008473 11.8863318,18.316176 11.9465773,18.3208103 C12.1519111,18.3362579 12.3081692,18.243216 12.4114303,18.0732927 C12.5095817,17.9119251 12.5099382,17.7397441 12.4180846,17.5712468 C12.4032312,17.5439165 12.3871895,17.5174179 12.3574826,17.4656092 C12.5154043,17.5395199 12.6204477,17.6326806 12.7006563,17.7498444 C12.7267983,17.7878692 12.7267983,17.8481147 12.7276301,17.8983787 C12.7282242,17.9440085 12.7138461,17.9898759 12.7012504,18.0633112 C12.8987416,17.9655162 13.0856572,17.906459 13.2843367,17.8935068 C13.4820655,17.8804358 13.6701694,17.927135 13.8702748,17.9977185 C13.8610063,17.9139451 13.852926,17.845144 13.8459152,17.7761053 C13.7956512,17.2835655 13.9572565,16.8518654 14.2191522,16.4455944 C14.5965482,15.8602504 15.1067932,15.4242725 15.7119814,15.0908427 C15.8565944,15.0111095 16.0174867,14.9573995 16.1331059,14.8291847 C16.1539007,14.8061321 16.1900242,14.795913 16.2205629,14.7829608 C16.4389677,14.6898001 16.6573725,14.5967582 16.8768468,14.5058552 C16.9098809,14.49219 16.95456,14.4748412 16.9826033,14.4863675 C17.0596034,14.5180944 17.1077286,14.4692563 17.1688059,14.4509569 C17.1539524,14.3367637 17.1380296,14.2343345 17.1281669,14.1313111 C17.1236514,14.0844931 17.1181854,14.031496 17.1347024,13.9900252 C17.1828275,13.8695342 17.1178289,13.8072686 17.0336991,13.7404876 C16.43873,13.2681485 15.8448305,12.7943835 15.2535451,12.3172913 C15.1802286,12.2581152 15.117963,12.2425488 15.0224257,12.2602541 C14.2567017,12.4022529 13.8075339,11.8379414 13.8240509,11.2919293 C13.8411621,10.7240529 14.2865274,10.4008422 14.6610715,10.3556878 C15.2145697,10.2891444 15.6429426,10.6532317 15.7396682,11.0946757 C15.7557099,11.1681111 15.7630772,11.2455866 15.7599877,11.3205667 C15.757017,11.3989928 15.7786436,11.4506827 15.8431669,11.5010656 C16.3405786,11.8903443 16.8345443,12.2840196 17.3294606,12.676269 C17.4895211,12.8030579 17.6505323,12.9287773 17.8088105,13.0577051 C17.8634711,13.1022654 17.915874,13.1164059 17.9897847,13.1107021 C18.1112263,13.1013148 18.2348069,13.1167623 18.3574368,13.1236543 C18.4427549,13.1285263 18.4590343,13.1950696 18.4775714,13.2609 C18.4981285,13.3336224 18.4792349,13.3980269 18.4224354,13.4390224 C18.3953428,13.4586289 18.3427022,13.4549452 18.3052716,13.4463897 C18.0459901,13.3868571 17.8262781,13.4574406 17.6436403,13.6453068 C17.4182247,13.8771392 17.3956475,14.2355227 17.5843454,14.525937 C17.6072791,14.5612288 17.6334212,14.5946193 17.6592067,14.6303863 C17.646611,14.6539142 17.6392437,14.6780361 17.623915,14.6949096 C17.5624812,14.7629978 17.5841078,14.8189655 17.6357977,14.8827758 C17.6873688,14.9461109 17.7648443,15.0000585 17.7490403,15.1127069 C17.7024599,15.1261344 17.653503,15.1405126 17.6043085,15.1541777 C17.4082432,15.2086007 17.2346363,15.2997413 17.0941822,15.4511275 C16.9866434,15.5668654 16.930438,15.7029229 16.9050089,15.8689248 C17.8013244,16.2579659 18.6011519,16.7939965 19.3504778,17.4208112 C19.2653973,17.5271618 19.1917243,17.6229367 19.1734249,17.7524586 C19.1315976,18.0478637 19.3502401,18.3148689 19.6479029,18.3228304 C19.6669153,18.3234245 19.6859276,18.323068 19.70494,18.3227115 C19.890192,18.3192656 19.9732524,18.4226454 19.9353465,18.609561 C19.8149742,18.5869838 19.6943644,18.5653572 19.5742298,18.5419482 C19.3059175,18.4896641 19.0443783,18.5364821 18.7853344,18.5994607 C18.3658736,18.7016523 17.9813479,18.8853595 17.6165477,19.1132705 C17.5688979,19.1430962 17.5201786,19.1711395 17.4501893,19.2127291 C17.4606461,19.156999 17.4633791,19.1223014 17.4735983,19.0899804 C17.6015754,18.6877495 17.6630092,18.2761312 17.6380554,17.8545314 C17.6035955,17.2693062 17.4115703,16.7418312 17.0405911,16.2833949 C17.0138549,16.2504797 16.9906835,16.2145938 16.9658486,16.1801339 C16.9528964,16.1892836 16.940063,16.1983145 16.9271108,16.2072265 C16.9702452,16.3102499 17.0063687,16.4168381 17.0577022,16.5154649 C17.227269,16.841171 17.3693866,17.1770961 17.4270179,17.5416587 C17.4693205,17.8081887 17.4967696,18.077214 17.4297509,18.3744015 C17.3908944,18.2351357 17.3602369,18.1228438 17.3279158,18.011146 C17.3121118,17.9566042 17.2961889,17.9014683 17.2746811,17.8490653 C17.1491993,17.5429658 16.9533717,17.2689498 16.8638946,16.9464521 C16.5692026,16.434187 16.0698897,16.1367619 15.4191906,16.2124549 C14.868663,16.2765029 14.3850353,16.7289978 14.2545628,17.2859421 C14.1253973,17.8373014 14.3522389,18.4214572 14.8231521,18.7504903 C14.8654547,18.7800784 14.9081137,18.8090723 14.9579024,18.8434134 C14.9341369,18.9663998 14.9110844,19.0857026 14.8842294,19.2248495 C14.797723,19.1837352 14.7279713,19.1505824 14.6343353,19.1061409 Z M6.773674,8.87407593 C6.99956497,8.92731063 7.2014528,8.97472278 7.40322181,9.02249141 C8.59922004,9.30553838 9.79521828,9.58822888 10.9906224,9.87353357 C11.0677414,9.891833 11.1456922,9.92165869 11.2130674,9.96289181 C11.9823562,10.4345179 12.7498627,10.9091148 13.5168939,11.3844245 C13.5515915,11.4059323 13.588428,11.4355203 13.6063709,11.4705744 C13.7017894,11.6559453 13.7917418,11.8441679 13.8827636,12.0317965 C13.8989241,12.065187 13.911401,12.1003599 13.9349288,12.1571594 C13.8740892,12.1544264 13.8294101,12.1559711 13.7858004,12.1499109 C13.245492,12.0763568 12.7056589,11.9990001 12.1651129,11.9279413 C11.6338353,11.8579519 11.1006566,11.8018654 10.5704485,11.725697 C9.88719072,11.6275455 9.25360278,11.4003474 8.71056136,10.9581905 C8.40469952,10.7088905 8.11297814,10.4446183 7.85286486,10.1469555 C7.51242423,9.7572015 7.17269656,9.36685335 6.83368186,8.97591105 C6.81383768,8.95321501 6.80219259,8.92327049 6.773674,8.87407593 Z M13.7185678,17.1560875 C13.5907095,17.3458549 13.5652804,17.5236207 13.6194657,17.730737 C13.3598278,17.7074468 13.1112407,17.7113681 12.8701399,17.8003699 C12.6884527,17.5230266 12.4441435,17.3422901 12.1158232,17.238316 C12.1760687,17.3209011 12.2264516,17.382929 12.268873,17.4499477 C12.3250784,17.5387118 12.3654797,17.6331796 12.3685692,17.7426197 C12.3764118,18.0221019 12.191041,18.1998677 11.912866,18.1777658 C11.8155463,18.170042 11.744131,18.1196592 11.6809148,18.0524029 C11.6518021,18.0213889 11.6258977,17.9871666 11.5984485,17.9543702 C11.5218048,17.8627543 11.4786705,17.8506339 11.3618631,17.8878269 C11.3483168,17.8921046 11.3331068,17.8940059 11.3215806,17.9016108 C11.0834504,18.0551359 10.8068201,18.0521652 10.5413596,18.0910218 C10.1567151,18.147346 9.77159538,18.2004619 9.3858815,18.2487058 C9.08013848,18.2868494 8.7736825,18.3211906 8.46675121,18.3473326 C8.17871348,18.371811 7.8896063,18.3948636 7.60085561,18.3975966 C7.23807542,18.4009238 6.89454528,18.3239236 6.60009087,18.0907841 C5.9495106,17.5755483 5.19768936,17.2627945 4.41806249,17.0063649 C4.39548527,16.9988787 4.37302689,16.9915114 4.35080615,16.9830747 C4.34248823,16.9798664 4.33523976,16.973925 4.30838476,16.9577644 C4.3687491,16.9550314 4.41152698,16.9509913 4.45430486,16.9514666 C5.25175584,16.9616858 6.04932566,16.9717861 6.84677664,16.9830747 C7.43532898,16.9916303 8.02376249,17.0022059 8.612196,17.0112368 C9.24816049,17.0210995 9.8842438,17.0295362 10.5200895,17.0403495 C10.8331998,17.0456968 11.1461913,17.0571042 11.4591828,17.0603125 C11.5126551,17.0609067 11.574683,17.046885 11.6185304,17.0178911 C12.1725039,16.6546356 12.7438263,16.6653301 13.3259619,16.9356625 C13.4579792,16.9968587 13.5806091,17.0777802 13.7185678,17.1560875 Z M10.235165,12.4275869 C10.2680802,12.422002 10.285429,12.4171301 10.3030155,12.4164171 C10.5876072,12.4057227 10.8723178,12.3956223 11.1569095,12.3852843 C11.7167056,12.364846 12.2774523,12.3573599 12.8359413,12.3181468 C13.101283,12.2994909 13.3556926,12.3322873 13.6130728,12.3713815 C14.0820847,12.4427968 14.5509778,12.5142121 15.0193956,12.5896676 C15.0829683,12.5998867 15.1510564,12.6209192 15.2033405,12.6569239 C15.7551752,13.0365776 16.3032073,13.421935 16.8552797,13.8012322 C16.9329928,13.8544669 16.9309727,13.9229115 16.9381024,14.0015753 C16.7842208,14.0015753 16.6337853,14.0024071 16.4834686,14.0009811 C16.4456814,14.0006246 16.408132,13.9911184 16.370226,13.989336 C15.8913514,13.9669965 15.4124768,13.9448946 14.9334834,13.9236245 C14.4831274,13.9036614 14.0326525,13.8838173 13.5821777,13.8659931 C13.3165983,13.8555363 13.0505437,13.8536351 12.785202,13.839257 C12.5533696,13.8266613 12.3208243,13.8115702 12.0910121,13.7803186 C11.8111734,13.7421749 11.5697161,13.606474 11.3488158,13.4370261 C11.1981426,13.3215258 11.0504401,13.2012724 10.9095108,13.074127 C10.7015627,12.8864985 10.5005067,12.6910274 10.2970741,12.4984081 C10.2772299,12.4796333 10.2610694,12.4574126 10.235165,12.4275869 Z M9.74815073,22.8668513 C9.72331579,22.8186074 9.70275865,22.7837909 9.68659811,22.7469544 C9.62670908,22.6105405 9.53010237,22.5108443 9.39404494,22.449767 C9.32037193,22.4167329 9.24551064,22.3864319 9.17290707,22.351259 C8.95069974,22.243839 8.83436767,21.9682782 8.91029841,21.7372776 C8.94986795,21.6167866 9.03138358,21.5370534 9.14177428,21.480135 C9.24895663,21.4248802 9.30741973,21.3419387 9.27450453,21.2000587 C9.22174515,21.1948303 9.16815397,21.1894831 9.10529425,21.1834229 C9.15769715,20.9769008 9.17587775,20.7721611 9.01486656,20.595227 C9.14640855,20.5713427 9.23505382,20.6103181 9.30219133,20.7215406 C9.38643999,20.861044 9.40735362,21.0144503 9.39273784,21.174392 C9.38453875,21.2630373 9.38453875,21.2630373 9.47128278,21.3430081 C9.51002053,21.3239957 9.55291724,21.3054587 9.59367505,21.2830003 C10.0050557,21.0558022 10.4169116,20.8293171 10.8261533,20.5983165 C10.8856859,20.5648072 10.939277,20.5135926 10.9826491,20.4601202 C11.1233408,20.2871075 11.2510803,20.1032814 11.435144,19.9700758 C11.5284235,19.902463 11.625862,19.849466 11.740887,19.8257005 C11.7873485,19.8160755 11.8328594,19.7813779 11.8691018,19.7477497 C11.9942271,19.6317741 12.1149558,19.5112831 12.2453095,19.3848507 C12.4299673,19.4540082 12.5751745,19.3686901 12.6983985,19.2264537 C12.7822907,19.1297281 12.8600039,19.0274177 12.9441337,18.9309298 C13.0637929,18.7934465 13.2012763,18.6917302 13.3990052,18.7137133 C13.5434993,18.7295173 13.6648222,18.7835838 13.7458625,18.9087091 C13.8051574,19.0003251 13.8611251,19.0941987 13.9183999,19.1871218 C13.9333722,19.2113626 13.9469185,19.2364352 13.9624849,19.2603195 C14.1698388,19.5810348 14.396918,19.6553019 14.7528062,19.5193633 C14.7733634,19.5114019 14.794277,19.5042722 14.8380055,19.4883494 C14.7209605,19.6795427 14.5941716,19.8312854 14.4530046,19.9697194 C14.2325797,20.1857476 13.9793584,20.3494919 13.6724271,20.4165105 C13.4477244,20.4654675 13.2208828,20.4598826 12.9924965,20.447881 C12.8135423,20.4386125 12.6336376,20.4518023 12.4540893,20.4531094 C12.3747126,20.4538224 12.3376384,20.4917283 12.3195766,20.5689662 C12.2895133,20.6975375 12.2201181,20.8049575 12.1084203,20.8794623 C12.0825159,20.8968111 12.042471,20.9151105 12.0182302,20.9066738 C11.9873351,20.8957416 11.9548952,20.861757 11.9444384,20.8306242 C11.9375464,20.8101859 11.9611931,20.7655068 11.9835326,20.7516039 C12.0841795,20.6892195 12.1365824,20.5977224 12.1579713,20.4861434 C12.187797,20.3305983 12.1187583,20.1963233 11.9611931,20.1231256 C11.9846021,20.1773109 12.01015,20.2173557 12.0189432,20.2608466 C12.0345096,20.3383221 12.0515019,20.4187683 12.0462735,20.4964814 C12.0405698,20.5819184 11.9856715,20.6391932 11.8976204,20.6672365 C11.629308,20.7524357 11.6301398,20.754337 11.7280536,21.0162327 C11.7326879,21.0288284 11.730549,21.0439195 11.7320938,21.0636448 C11.7129625,21.0750523 11.6945443,21.089668 11.6735118,21.0981048 C11.2309984,21.2765836 10.8506318,21.5505997 10.5046062,21.8725032 C10.3281475,22.0366039 10.1663045,22.2173405 10.0049368,22.3970076 C9.8995369,22.5144091 9.81968485,22.6495159 9.79223571,22.8096953 C9.78962151,22.8251429 9.77120325,22.8378574 9.74815073,22.8668513 Z M14.7902963,20.8149509 C14.9831533,20.7141852 15.1794562,20.6197174 15.3679165,20.5113467 C15.7144173,20.3123108 16.0019798,20.0434043 16.2397535,19.7239961 C16.309624,19.6303601 16.3636905,19.5203258 16.40326,19.4098163 C16.4888158,19.1713296 16.4267879,18.9837011 16.2165821,18.8381375 C16.1000124,18.7573348 15.9739365,18.6886525 15.8475041,18.6238916 C15.6315946,18.5132632 15.4144969,18.4054867 15.2269872,18.2485157 C15.0736998,18.1200632 14.9624773,17.965944 14.9242148,17.7636997 C14.8543443,17.3941464 15.0810671,17.0313662 15.4491945,16.9561484 C16.1013195,16.8231805 16.6962885,17.0481208 17.0349467,17.6777875 C17.1997604,17.9841246 17.2838902,18.3133955 17.2976742,18.6597775 C17.3045662,18.8305325 17.2961295,19.0018817 17.3000508,19.1728744 C17.3018332,19.2583113 17.2735523,19.3283007 17.2273284,19.3978147 C16.757247,20.1050757 16.0966852,20.5360628 15.2810537,20.7406837 C15.1211119,20.7808474 14.9570112,20.8042564 14.7948117,20.8353892 C14.7933858,20.8284972 14.7918411,20.8218428 14.7902963,20.8149509 Z M14.9083038,18.0652244 C15.0928429,18.3292589 15.3580657,18.4779121 15.6247145,18.6258522 C15.79036,18.7179435 15.9589761,18.8068264 16.115353,18.9134147 C16.3600187,19.0800107 16.3999448,19.2854634 16.2464197,19.5403483 C15.8637953,20.1763127 15.2961566,20.5451531 14.5734481,20.6845377 C14.1928438,20.7579731 13.8103382,20.759399 13.4069191,20.7008171 C13.472393,20.6759822 13.5220629,20.6559003 13.5724457,20.6379574 C13.9531688,20.5034447 14.2999073,20.3116572 14.5836673,20.0200547 C14.9646281,19.6285182 15.1091222,19.16319 15.0069306,18.6234757 C14.9717577,18.4378672 14.9409814,18.2513081 14.9083038,18.0652244 Z M12.5879841,14.7903875 C12.9866502,14.6855817 13.3854351,14.5805382 13.78422,14.4759701 C14.2383785,14.3567861 14.6903981,14.2282148 15.1480026,14.1240032 C15.3107962,14.0870478 15.4868984,14.1060602 15.6569405,14.1061791 C15.7704207,14.1062979 15.8839009,14.1202007 15.9975,14.1245973 C16.281854,14.1356483 16.5662081,14.1446792 16.850681,14.155136 C16.8689805,14.1558489 16.8871611,14.1619091 16.9033216,14.1651175 C16.9352862,14.2947582 16.9355238,14.2968971 16.8321439,14.3405068 C16.303243,14.5640212 15.7736291,14.7853967 15.2452034,15.0100994 C14.8534293,15.1766955 14.4462077,15.2588053 14.0225878,15.2072342 C13.7930132,15.1793097 13.5651022,15.1261939 13.3414689,15.0655919 C13.086584,14.9964343 12.8374029,14.9064819 12.5856075,14.8254416 C12.5864393,14.8137965 12.5872711,14.8021514 12.5879841,14.7903875 Z M20.0149133,18.1962435 C20.2053937,17.9527661 20.2241684,17.7401838 20.0806249,17.5331864 C19.9467064,17.3403294 19.7261626,17.2824604 19.4288563,17.3709869 C18.9562796,16.7946738 18.3076006,16.4449646 17.6353937,16.0723217 C17.6858954,16.0723217 17.7037195,16.0682816 17.7189294,16.0729159 C18.2866869,16.244978 18.8558704,16.4121682 19.4210137,16.5923106 C19.7742877,16.7049591 20.1163919,16.8479085 20.431047,17.0483704 C20.5804131,17.1434323 20.7146881,17.2547736 20.8154538,17.4034268 C20.9060003,17.5372265 20.9645823,17.6827901 20.9466393,17.8446331 C20.9333306,17.9657183 20.9781286,18.0402231 21.07426,18.1047464 C21.12797,18.1407511 21.1714608,18.1949364 21.2123375,18.2466263 C21.32558,18.3896946 21.3239164,18.5454774 21.2425196,18.7001907 C21.1781152,18.8227018 21.0867369,18.9244181 20.9595915,19.0048643 C20.8368427,18.7201537 20.5926523,18.6509961 20.3216069,18.6273495 C20.2511423,18.6211704 20.1812717,18.6091689 20.098449,18.5981179 C20.0709999,18.4657441 20.0433131,18.3327762 20.0149133,18.1962435 Z M11.4417745,18.5601407 C11.2097045,18.637735 10.9864278,18.7154481 10.7613686,18.7869823 C10.3547411,18.9163853 9.95001479,19.0520863 9.52853385,19.1296806 C9.10479518,19.2076314 8.68022471,19.2216531 8.25553542,19.1534461 C7.86269189,19.0904676 7.47198725,19.0140615 7.08056964,18.9422897 C7.03089977,18.9332588 6.98277466,18.9160289 6.93286713,18.8758652 C7.06405263,18.8528127 7.1951193,18.8279777 7.32678011,18.8069453 C7.77594785,18.7351735 8.22535325,18.6649465 8.67463982,18.5935312 C9.18951914,18.5118967 9.70439846,18.4296681 10.2192778,18.3476772 C10.4860454,18.305137 10.753526,18.2660427 11.0191053,18.2173235 C11.1149991,18.1998559 11.1775023,18.2105503 11.2319253,18.3026416 C11.2839717,18.3906927 11.361566,18.4637716 11.4417745,18.5601407 Z M19.3628239,13.7177916 C19.5548491,14.4582054 19.152737,15.0258441 18.4198093,15.2025405 C18.3843988,15.0627994 18.2667596,15.0175262 18.1450803,14.9714211 C17.9500844,14.8973916 17.8046396,14.7681073 17.7301348,14.5680019 C17.6525405,14.3592221 17.659789,14.0003632 17.9282202,13.7938411 C18.045384,13.7037699 18.2189909,13.6921248 18.3396008,13.7777994 C18.3928355,13.8155865 18.4351381,13.8687024 18.483382,13.913738 C18.5315071,13.9586548 18.5761862,14.0095129 18.6304904,14.04528 C18.8591144,14.1957155 19.1010471,14.1294098 19.2293807,13.8877148 C19.2614641,13.8273505 19.2690691,13.7477361 19.3628239,13.7177916 Z M14.7496217,16.8575097 C14.71635,16.8137812 14.6797511,16.7656561 14.6303189,16.7005387 C14.721816,16.6227067 14.809986,16.5478454 14.8920958,16.4779749 C14.9138412,16.4824903 14.9272687,16.481302 14.9308335,16.4866493 C15.0091408,16.6048826 15.1027768,16.6294799 15.2261197,16.5489149 C15.2680658,16.5215845 15.3242712,16.515049 15.3748917,16.502691 C15.4204026,16.49164 15.4672206,16.4856987 15.5171281,16.4769054 C15.5341205,16.4096491 15.5499245,16.3465517 15.5706005,16.2649173 C15.6827736,16.2757306 15.7935208,16.286425 15.9134177,16.2980701 L15.9134177,16.4940166 C16.058506,16.5678084 16.2010989,16.6402932 16.3592582,16.7207393 C16.4003725,16.693409 16.4546767,16.6574043 16.5237154,16.6115369 C16.5981014,16.6993504 16.6733192,16.7882333 16.7592314,16.889712 C16.7012436,16.9393818 16.6488407,16.9842986 16.5933483,17.0320672 C16.3966889,16.9212012 16.1918304,16.8469341 15.9734255,16.8201979 C15.6426099,16.7797966 15.3262913,16.8074834 15.0698616,17.0553574 C14.8337515,17.2835061 14.7427297,17.5600176 14.7998857,17.8845353 C14.8246018,18.0246329 14.8490802,18.1647305 14.8711821,18.3053033 C14.8979183,18.4757019 14.89673,18.4758207 14.7310846,18.5750416 C14.6292495,18.5140831 14.5736382,18.409515 14.4969945,18.3127895 C14.5464267,18.260743 14.5912247,18.2138062 14.6294871,18.1735237 C14.5793419,18.0114431 14.531811,17.8583933 14.4826164,17.6992834 C14.4270052,17.6870441 14.3674726,17.6738543 14.2932055,17.6572184 C14.2991468,17.5424311 14.305207,17.4269308 14.3118614,17.2976466 C14.3862473,17.3023997 14.4460175,17.3062022 14.5097091,17.3102423 C14.5878975,17.1627774 14.6669178,17.0137678 14.7496217,16.8575097 Z M12.3673215,16.5448272 C12.9639541,16.2655827 13.5738954,16.1182367 14.173261,15.9187254 C13.9493901,16.221973 13.7603357,16.5384105 13.6839296,16.9327988 C13.2771833,16.6995405 12.8486915,16.5804754 12.3673215,16.5448272 Z M8.64224746,22.0658949 C8.71675227,22.2305897 8.78448391,22.3711626 8.8446106,22.5149438 C8.91697651,22.6880754 8.90937156,22.8583551 8.80016914,23.0158015 C8.65698206,23.2222048 8.4705418,23.3707391 8.21648872,23.4104274 C8.03872287,23.4382331 7.89446635,23.3709767 7.78027317,23.2232742 C7.87283975,23.1837047 7.96160385,23.1560179 8.03943583,23.1100317 C8.16420465,23.0362398 8.24964158,22.9203831 8.32664177,22.8000109 C8.46804643,22.5786353 8.56465314,22.3374156 8.64224746,22.0658949 Z M18.2725465,13.6227058 C18.3167503,13.5978709 18.3723615,13.5707782 18.4235762,13.5370312 C18.5509592,13.4530202 18.5896969,13.3521357 18.5465626,13.2065721 C18.5290949,13.1479902 18.4983186,13.0933296 18.4725331,13.0374807 C18.4553031,13.0005253 18.436053,12.9645206 18.4042073,12.9015421 C18.4605315,12.9226934 18.4907137,12.9301795 18.5170934,12.9445576 C18.7091185,13.0497199 18.8984106,13.1590411 19.0493215,13.3220724 C19.0686904,13.342986 19.0891287,13.3630679 19.1075469,13.3846945 C19.2771137,13.5834928 19.2824609,13.6792677 19.1365408,13.8937512 C19.0348245,14.0431173 18.8719121,14.0893412 18.7123269,14.0042608 C18.6508931,13.9715832 18.598609,13.9200121 18.5457308,13.8731941 C18.4549466,13.7929856 18.3668955,13.7095687 18.2725465,13.6227058 Z M12.5282139,19.3192936 C12.4586998,19.2559585 12.4878125,19.1831173 12.4853172,19.105523 C12.5879841,19.0976804 12.6416941,19.0424256 12.6570228,18.9396399 C12.6651031,18.8855734 12.6987313,18.8354282 12.7220214,18.7805299 C12.6932652,18.7452382 12.6667667,18.7126795 12.6320691,18.6700204 C12.6831649,18.6160727 12.7343795,18.5620063 12.7924861,18.5008101 C12.8294415,18.5251697 12.8631884,18.5475093 12.9018074,18.5728196 C12.9891455,18.5324182 13.0792167,18.4909474 13.1779623,18.4454365 C13.1861614,18.4126402 13.1961429,18.3725953 13.2082633,18.324589 C13.2763515,18.3159146 13.3453902,18.3070026 13.4219151,18.2972587 C13.4361744,18.3456215 13.4490078,18.3891123 13.4621976,18.4335538 C13.5574972,18.4673008 13.6510144,18.5004536 13.7501165,18.5356266 C13.7798234,18.5138811 13.8134515,18.4892839 13.8538529,18.4598147 C13.9102959,18.5079398 13.9632929,18.553213 14.0223502,18.6037147 C13.9950199,18.6495821 13.9718485,18.6885575 13.9492713,18.7267011 C13.976364,18.779817 14.0097545,18.8279421 14.025915,18.8812956 C14.0522947,18.967802 14.0925772,19.027691 14.2057009,19.011174 L14.2057009,19.2406298 C14.1377316,19.2791299 14.0894877,19.2529879 14.0494428,19.1959507 C13.9867019,19.1065924 13.9232481,19.0177095 13.8609825,18.9279948 C13.7416797,18.7559326 13.5912442,18.6380558 13.3710569,18.6280743 C13.229177,18.6216576 13.1044082,18.6607519 13.010891,18.7652012 C12.9034709,18.8852169 12.8071019,19.0147388 12.707168,19.1411712 C12.6551216,19.2071205 12.610799,19.280437 12.5282139,19.3192936 Z M8.84387387,22.1991124 C8.66634567,21.9961551 8.63545053,21.7929601 8.7275418,21.5804967 C8.8110775,21.3876397 8.96947448,21.2856858 9.20926827,21.2714265 C9.18312623,21.3134914 9.17338238,21.3446242 9.15234992,21.3598341 C9.10256122,21.39572 9.0457617,21.4219809 8.99454707,21.4560843 C8.82878278,21.5665939 8.75297087,21.7178612 8.79087683,21.9186796 C8.80668088,22.0016211 8.82224728,22.0846815 8.84387387,22.1991124 Z M19.7816048,18.1943744 C19.6294333,18.1878269 19.5418407,18.0949929 19.5463025,17.9439332 C19.5502947,17.7975502 19.6510379,17.6944273 19.7900588,17.6946612 C19.9361247,17.694895 20.0572983,17.8237401 20.0453219,17.9661478 C20.0333454,18.1092571 19.9276707,18.2004542 19.7816048,18.1943744 Z" id="Combined-Shape"></path>
        </g>
    </g>
</svg>