<?xml version="1.0" encoding="UTF-8"?>
<svg width="26px" height="26px" viewBox="0 0 26 26" version="1.1" xmlns="http://www.w3.org/2000/svg" xmlns:xlink="http://www.w3.org/1999/xlink">
    <!-- Generator: Sketch 46.2 (44496) - http://www.bohemiancoding.com/sketch -->
    <title>icon-magnifier</title>
    <desc>Created with Sketch.</desc>
    <defs></defs>
    <g id="Elements-/-Glyphs" stroke="none" stroke-width="1" fill="none" fill-rule="evenodd">
        <g id="magnifier" fill-rule="nonzero" fill="#FFFFFF">
            <path d="M14,19.5 C9.85786438,19.5 6.5,16.1421356 6.5,12 C6.5,7.85786438 9.85786438,4.5 14,4.5 C18.1421356,4.5 21.5,7.85786438 21.5,12 C21.5,16.1421356 18.1421356,19.5 14,19.5 Z M14,18.5 C17.5898509,18.5 20.5,15.5898509 20.5,12 C20.5,8.41014913 17.5898509,5.5 14,5.5 C10.4101491,5.5 7.5,8.41014913 7.5,12 C7.5,15.5898509 10.4101491,18.5 14,18.5 Z" id="Oval"></path>
            <polygon id="Line-2" points="9 16.2928932 4.29289322 21 5 21.7071068 9.70710678 17"></polygon>
        </g>
    </g>
</svg>