<svg width="12px" height="13px" viewBox="0 0 12 13" version="1.1" xmlns="http://www.w3.org/2000/svg" xmlns:xlink="http://www.w3.org/1999/xlink">
    <!-- Generator: Sketch Beta 47.1 (45415) - http://www.bohemiancoding.com/sketch -->
    <desc>No key</desc>
    <defs>
        <path d="M12.1375631,12.6371422 L12.1375631,8.08946609 L13.1375631,8.08946609 L13.1375631,11.9704756 L13.2463203,11.8979708 L15.2463203,10.8979708 L17.7463203,10.8979708 L18.2463203,11.3979708 L18.7463203,13.8979708 L18.2463203,16.3979708 L17.7463203,16.8979708 L15.2463203,16.8979708 L13.2463203,15.8979708 L13.1375631,15.7892136 L13.1375631,20.4031746 L12.1375631,20.4031746 L12.1375631,14.7892136 L11.7463203,14.3979708 L11.7233496,14.4324269 L11.7233496,12.8979708 L11.7463203,12.8979708 L12.1375631,12.6371422 Z M10.7233496,12.8979708 L6.24632034,12.8979708 L5.24632034,13.8979708 L6.74632034,15.8979708 L7.74632034,14.3979708 L8.74632034,15.8979708 L9.74632034,14.3979708 L10.7233496,15.8635146 L10.7233496,12.8979708 Z M15.2463203,12.8979708 L15.2463203,14.8979708 L16.2463203,15.3979708 L17.2463203,14.8979708 L17.7463203,13.8979708 L17.2463203,12.8979708 L16.2463203,12.3979708 L15.2463203,12.8979708 Z" id="path-1"></path>
    </defs>
    <g id="Glyphs" stroke="none" stroke-width="1" fill="none" fill-rule="evenodd">
        <g id="Glyphs-/-No-Key" transform="translate(-6.000000, -7.000000)">
            <mask id="mask-2" fill="white">
                <use xlink:href="#path-1"></use>
            </mask>
            <use id="Key" fill="#FFFFFF" transform="translate(11.996320, 14.246320) rotate(-45.000000) translate(-11.996320, -14.246320) " xlink:href="#path-1"></use>
        </g>
    </g>
</svg>
