<?xml version="1.0" encoding="UTF-8"?>
<svg width="26px" height="26px" viewBox="0 0 26 26" version="1.1" xmlns="http://www.w3.org/2000/svg" xmlns:xlink="http://www.w3.org/1999/xlink">
    <!-- Generator: Sketch 46.2 (44496) - http://www.bohemiancoding.com/sketch -->
    <title>icon-poll</title>
    <desc>Created with Sketch.</desc>
    <defs></defs>
    <g id="Elements-/-Glyphs" stroke="none" stroke-width="1" fill="none" fill-rule="evenodd">
        <g id="poll" fill-rule="nonzero" fill="#FFFFFF">
            <g id="Icon" transform="translate(4.000000, 4.000000)">
                <path d="M12.0255499,1.52119138 C15.5077743,2.76388565 18,6.09089757 18,10 C18,14.9705627 13.9705627,19 9,19 C4.02943725,19 0,14.9705627 0,10 C0,5.58317224 3.18166319,1.90946173 7.37810467,1.14575338 L7.73620188,3.11343384 C4.436239,3.71399248 2,6.60431149 2,10 C2,13.8659932 5.13400675,17 9,17 C12.8659932,17 16,13.8659932 16,10 C16,7.01695814 14.1167824,4.39102448 11.3533364,3.40483916 L12.0255499,1.52119138 Z M12.0255499,1.52119138 C15.5077743,2.76388565 18,6.09089757 18,10 C18,14.9705627 13.9705627,19 9,19 C4.02943725,19 0,14.9705627 0,10 C0,5.58317224 3.18166319,1.90946173 7.37810467,1.14575338 L7.73620188,3.11343384 C4.436239,3.71399248 2,6.60431149 2,10 C2,13.8659932 5.13400675,17 9,17 C12.8659932,17 16,13.8659932 16,10 C16,7.01695814 14.1167824,4.39102448 11.3533364,3.40483916 L12.0255499,1.52119138 Z" id="Oval"></path>
                <polygon id="Path-3" transform="translate(4.385470, 3.385470) rotate(5.000000) translate(-4.385470, -3.385470) " points="6.01047013 1.76047013 6.01047013 6.51047013 7.51047013 6.51047013 7.51047013 0.260470128 1.26047013 0.260470128 1.26047013 1.76047013"></polygon>
                <polygon id="Path-4" points="11 0 11 5.5 12.4 5.5 12.4 0"></polygon>
            </g>
        </g>
    </g>
</svg>