<?xml version="1.0" encoding="UTF-8"?>
<svg width="26px" height="26px" viewBox="0 0 26 26" version="1.1" xmlns="http://www.w3.org/2000/svg" xmlns:xlink="http://www.w3.org/1999/xlink">
    <!-- Generator: Sketch 46.2 (44496) - http://www.bohemiancoding.com/sketch -->
    <title>icon-power</title>
    <desc>Created with Sketch.</desc>
    <defs></defs>
    <g id="Elements-/-Glyphs" stroke="none" stroke-width="1" fill="none" fill-rule="evenodd">
        <g id="power" fill-rule="nonzero" fill="#FFFFFF">
            <path d="M10.3020014,7.53885979 C10.7673338,7.6739083 11,8.16095504 11,9 C11,9.14161976 10.9933146,9.28323951 10.9799438,9.42485927 C10.6337202,9.57795133 10.3081357,9.76919083 10.0085197,9.99324851 C8.7892285,10.9050543 8,12.3603601 8,14 C8,16.7614237 10.2385763,19 13,19 C15.7614237,19 18,16.7614237 18,14 C18,12.3638704 17.2141472,10.9112865 15.9993055,9.99911224 C15.6977203,9.77266445 15.3696973,9.57952121 15.0206961,9.42514229 C15.0068987,9.28306738 15,9.14135328 15,9 C15,8.17191296 15.2367594,7.68658204 15.7102783,7.54400727 C18.230365,8.60322885 20,11.0949542 20,14 C20,17.8659932 16.8659932,21 13,21 C9.13400675,21 6,17.8659932 6,14 C6,11.090238 7.77538555,8.59513951 10.3020014,7.53885979 Z M13,5 C13.5522847,5 14,5.44771525 14,6 L14,12 C14,12.5522847 13.5522847,13 13,13 C12.4477153,13 12,12.5522847 12,12 L12,6 L12,6 C12,5.44771525 12.4477153,5 13,5 Z" id="Oval-4"></path>
        </g>
    </g>
</svg>