<?xml version="1.0" encoding="UTF-8"?>
<svg width="26px" height="26px" viewBox="0 0 26 26" version="1.1" xmlns="http://www.w3.org/2000/svg" xmlns:xlink="http://www.w3.org/1999/xlink">
    <!-- Generator: Sketch Beta 47 (45359) - http://www.bohemiancoding.com/sketch -->
    <title>icon-scatterplot</title>
    <desc>Created with Sketch Beta.</desc>
    <defs></defs>
    <g id="Glyphs" stroke="none" stroke-width="1" fill="none" fill-rule="evenodd">
        <g id="scatterplot" fill="#000">
            <path d="M11,12 L11,6 L12,5 L13,6 L13,12 L19,12 L20,13 L19,14 L13,14 L13,20 L12,21 L11,20 L11,14 L5,14 L4,13 L5,12 L11,12 Z M6,12 C5.44771525,12 5,11.5522847 5,11 C5,10.4477153 5.44771525,10 6,10 C6.55228475,10 7,10.4477153 7,11 C7,11.5522847 6.55228475,12 6,12 Z M10,19 C9.44771525,19 9,18.5522847 9,18 C9,17.4477153 9.44771525,17 10,17 C10.5522847,17 11,17.4477153 11,18 C11,18.5522847 10.5522847,19 10,19 Z M18,12 C17.4477153,12 17,11.5522847 17,11 C17,10.4477153 17.4477153,10 18,10 C18.5522847,10 19,10.4477153 19,11 C19,11.5522847 18.5522847,12 18,12 Z M8,17 C7.44771525,17 7,16.5522847 7,16 C7,15.4477153 7.44771525,15 8,15 C8.55228475,15 9,15.4477153 9,16 C9,16.5522847 8.55228475,17 8,17 Z M10,11 C9.44771525,11 9,10.5522847 9,10 C9,9.44771525 9.44771525,9 10,9 C10.5522847,9 11,9.44771525 11,10 C11,10.5522847 10.5522847,11 10,11 Z M6,21 C5.44771525,21 5,20.5522847 5,20 C5,19.4477153 5.44771525,19 6,19 C6.55228475,19 7,19.4477153 7,20 C7,20.5522847 6.55228475,21 6,21 Z M5,18 C4.44771525,18 4,17.5522847 4,17 C4,16.4477153 4.44771525,16 5,16 C5.55228475,16 6,16.4477153 6,17 C6,17.5522847 5.55228475,18 5,18 Z M14,16 C13.4477153,16 13,15.5522847 13,15 C13,14.4477153 13.4477153,14 14,14 C14.5522847,14 15,14.4477153 15,15 C15,15.5522847 14.5522847,16 14,16 Z M15,9 C14.4477153,9 14,8.55228475 14,8 C14,7.44771525 14.4477153,7 15,7 C15.5522847,7 16,7.44771525 16,8 C16,8.55228475 15.5522847,9 15,9 Z M14,12 C13.4477153,12 13,11.5522847 13,11 C13,10.4477153 13.4477153,10 14,10 C14.5522847,10 15,10.4477153 15,11 C15,11.5522847 14.5522847,12 14,12 Z M19,8 C18.4477153,8 18,7.55228475 18,7 C18,6.44771525 18.4477153,6 19,6 C19.5522847,6 20,6.44771525 20,7 C20,7.55228475 19.5522847,8 19,8 Z" id="Combined-Shape"></path>
        </g>
    </g>
</svg>
