<?xml version="1.0" encoding="UTF-8"?>
<svg width="26px" height="26px" viewBox="0 0 26 26" version="1.1" xmlns="http://www.w3.org/2000/svg" xmlns:xlink="http://www.w3.org/1999/xlink">
    <!-- Generator: Sketch Beta 47 (45359) - http://www.bohemiancoding.com/sketch -->
    <title>icon-summary</title>
    <desc>Created with Sketch Beta.</desc>
    <defs></defs>
    <g id="Glyphs" stroke="none" stroke-width="1" fill="none" fill-rule="evenodd">
        <g id="summary" fill="#000">
            <path d="M19.1298429,8.20118168 L16.5060804,10.8249441 C16.1191719,11.2118526 15.4809862,11.2122484 15.0876093,10.8188715 L15.1811285,10.9123907 C14.7910605,10.5223227 14.7850328,9.88394267 15.1750559,9.49391961 L17.7988183,6.87015715 C17.9812688,6.6877067 18.2767026,6.68732987 18.4650478,6.87567507 L19.1243249,7.53495222 C19.3098228,7.72045014 19.3096724,8.02135216 19.1298429,8.20118168 Z M20.5328064,13.9411765 L16.7652035,13.9411765 C16.2414463,13.9411765 15.8235294,13.5197974 15.8235294,13 C15.8235294,12.4765787 16.2451313,12.0588235 16.7652035,12.0588235 L20.5328064,12.0588235 C20.7908303,12.0588235 21,12.2674603 21,12.5338207 L21,13.4661793 C21,13.728513 20.7871237,13.9411765 20.5328064,13.9411765 Z M17.7988183,19.1298429 L15.1750559,16.5060804 C14.7881474,16.1191719 14.7877516,15.4809862 15.1811285,15.0876093 L15.0876093,15.1811285 C15.4776773,14.7910605 16.1160573,14.7850328 16.5060804,15.1750559 L19.1298429,17.7988183 C19.3122933,17.9812688 19.3126701,18.2767026 19.1243249,18.4650478 L18.4650478,19.1243249 C18.2795499,19.3098228 17.9786478,19.3096724 17.7988183,19.1298429 Z M12.0588235,20.5328064 L12.0588235,16.7652035 C12.0588235,16.2414463 12.4802026,15.8235294 13,15.8235294 C13.5234213,15.8235294 13.9411765,16.2451313 13.9411765,16.7652035 L13.9411765,20.5328064 C13.9411765,20.7908303 13.7325397,21 13.4661793,21 L12.5338207,21 C12.271487,21 12.0588235,20.7871237 12.0588235,20.5328064 Z M6.87015715,17.7988183 L9.49391961,15.1750559 C9.88082811,14.7881474 10.5190138,14.7877516 10.9123907,15.1811285 L10.8188715,15.0876093 C11.2089395,15.4776773 11.2149672,16.1160573 10.8249441,16.5060804 L8.20118168,19.1298429 C8.01873123,19.3122933 7.72329742,19.3126701 7.53495222,19.1243249 L6.87567507,18.4650478 C6.69017716,18.2795499 6.69032763,17.9786478 6.87015715,17.7988183 Z M5.4671936,12.0588235 L9.23479651,12.0588235 C9.75855367,12.0588235 10.1764706,12.4802026 10.1764706,13 C10.1764706,13.5234213 9.75486874,13.9411765 9.23479651,13.9411765 L5.4671936,13.9411765 C5.2091697,13.9411765 5,13.7325397 5,13.4661793 L5,12.5338207 C5,12.271487 5.21287626,12.0588235 5.4671936,12.0588235 Z M8.20118168,6.87015715 L10.8249441,9.49391961 C11.2118526,9.88082811 11.2122484,10.5190138 10.8188715,10.9123907 L10.9123907,10.8188715 C10.5223227,11.2089395 9.88394267,11.2149672 9.49391961,10.8249441 L6.87015715,8.20118168 C6.6877067,8.01873123 6.68732987,7.72329742 6.87567507,7.53495222 L7.53495222,6.87567507 C7.72045014,6.69017716 8.02135216,6.69032763 8.20118168,6.87015715 Z M13.9411765,5.4671936 L13.9411765,9.23479651 C13.9411765,9.75855367 13.5197974,10.1764706 13,10.1764706 C12.4765787,10.1764706 12.0588235,9.75486874 12.0588235,9.23479651 L12.0588235,5.4671936 C12.0588235,5.2091697 12.2674603,5 12.5338207,5 L13.4661793,5 C13.728513,5 13.9411765,5.21287626 13.9411765,5.4671936 Z" id="Combined-Shape"></path>
        </g>
    </g>
</svg>
