<?xml version="1.0" encoding="UTF-8"?>
<svg width="26px" height="26px" viewBox="0 0 26 26" version="1.1" xmlns="http://www.w3.org/2000/svg" xmlns:xlink="http://www.w3.org/1999/xlink">
    <!-- Generator: Sketch Beta 47 (45359) - http://www.bohemiancoding.com/sketch -->
    <title>icon-tape</title>
    <desc>Created with Sketch Beta.</desc>
    <defs>
        <path d="M9.31779512,18 C10.0878932,17.487971 10.7329268,16.8027747 11.1973068,16 L14.8026932,16 C15.2670732,16.8027747 15.9121068,17.487971 16.6822049,18 L9.31779512,18 Z" id="path-1"></path>
    </defs>
    <g id="Glyphs" stroke="none" stroke-width="1" fill="none" fill-rule="evenodd">
        <g id="tape">
            <path d="M6,16 C7.65685425,16 9,14.6568542 9,13 C9,11.3431458 7.65685425,10 6,10 C4.34314575,10 3,11.3431458 3,13 C3,14.6568542 4.34314575,16 6,16 Z M6,18 C3.23857625,18 1,15.7614237 1,13 C1,10.2385763 3.23857625,8 6,8 C8.76142375,8 11,10.2385763 11,13 C11,15.7614237 8.76142375,18 6,18 Z" id="Oval-4" fill="#000" fill-rule="nonzero"></path>
            <path d="M20,16 C21.6568542,16 23,14.6568542 23,13 C23,11.3431458 21.6568542,10 20,10 C18.3431458,10 17,11.3431458 17,13 C17,14.6568542 18.3431458,16 20,16 Z M20,18 C17.2385763,18 15,15.7614237 15,13 C15,10.2385763 17.2385763,8 20,8 C22.7614237,8 25,10.2385763 25,13 C25,15.7614237 22.7614237,18 20,18 Z" id="Oval-4-Copy" fill="#000" fill-rule="nonzero"></path>
            <mask id="mask-2" fill="#000">
                <use xlink:href="#path-1"></use>
            </mask>
            <use id="Combined-Shape" fill="#000" xlink:href="#path-1"></use>
        </g>
    </g>
</svg>
